<svg xmlns="http://www.w3.org/2000/svg" version="1.1" xmlns:xlink="http://www.w3.org/1999/xlink" xmlns:svgjs="http://svgjs.dev/svgjs" width="2000" height="545" viewBox="0 0 2000 545"><g transform="matrix(1,0,0,1,-1.212072378482958,0.5437247761097979)"><svg viewBox="0 0 396 108" data-background-color="#ffffff" preserveAspectRatio="xMidYMid meet" height="545" width="2000" xmlns="http://www.w3.org/2000/svg" xmlns:xlink="http://www.w3.org/1999/xlink"><defs></defs><g id="tight-bounds" transform="matrix(1,0,0,1,0.23999033093963362,-0.10774729508230507)"><svg viewBox="0 0 395.52 108.21527638841182" height="108.21527638841182" width="395.52"><g><svg viewBox="0 0 587.3983344135389 160.71367594218717" height="108.21527638841182" width="395.52"><g transform="matrix(1,0,0,1,191.8783344135389,47.354056587818974)"><svg viewBox="0 0 395.52 66.00556276654922" height="66.00556276654922" width="395.52"><g><svg viewBox="0 0 395.52 66.00556276654922" height="66.00556276654922" width="395.52"><g><svg viewBox="0 0 395.52 66.00556276654922" height="66.00556276654922" width="395.52"><g transform="matrix(1,0,0,1,0,0)"><svg width="395.52" viewBox="2.5 -33.75 268.97998046875 45" height="66.00556276654922" data-palette-color="#ffa96a"><g class="undefined-text-0" data-fill-palette-color="primary" id="text-0"><path d="M28-27.75Q28.75-26.85 29.05-26.3 29.35-25.75 29.35-25.25L29.35-25.25Q29.35-24.65 28.58-23.85 27.8-23.05 27.05-23.05L27.05-23.05Q26.05-23.05 25.45-23.35 24.85-23.65 24.45-24.3L24.45-24.3Q23.65-25.5 22.5-26.38 21.35-27.25 18.9-27.25L18.9-27.25Q16.8-27.25 14.13-26.3 11.45-25.35 10.3-23.95L10.3-23.95Q9.3-22.7 8.58-20.15 7.85-17.6 7.85-15.2L7.85-15.2Q7.85-12.3 9.13-9.88 10.4-7.45 12.83-6 15.25-4.55 18.65-4.55L18.65-4.55Q20.5-4.55 22.48-5.28 24.45-6 25.9-7.65L25.9-7.65 25.85-7.65Q26.75-8.6 28.1-8.6L28.1-8.6Q28.9-8.6 29.63-7.9 30.35-7.2 30.35-6.5L30.35-6.5Q30.35-5.75 30.13-5.18 29.9-4.6 29.3-3.9L29.3-3.9Q27.25-1.6 24.45-0.75 21.65 0.1 17.75 0.1L17.75 0.1Q14.3 0.1 10.78-1.55 7.25-3.2 5.35-5.55L5.35-5.55Q4.35-7 3.43-9.73 2.5-12.45 2.5-14.15L2.5-14.15Q2.5-18.5 3.83-22.43 5.15-26.35 7.8-28.7L7.8-28.7Q9.55-30.3 12.85-31.1 16.15-31.9 18.9-31.9L18.9-31.9Q22.25-31.9 24.18-30.98 26.1-30.05 28-27.75L28-27.75ZM57.55-2.4Q57.55-1.3 56.37-0.55 55.2 0.2 54.2 0.2L54.2 0.2Q52.3 0.2 51.17-0.28 50.05-0.75 49.1-2.05L49.1-2.05Q47.8-0.9 45.55-0.33 43.3 0.25 41.4 0.25L41.4 0.25Q38.3 0.25 36.3-1.43 34.3-3.1 34.3-6.35L34.3-6.35Q34.3-7.75 35.05-8.93 35.8-10.1 37.1-11L37.1-11Q38.55-11.95 40.4-12.48 42.25-13 44.25-13L44.25-13Q45.3-13 46.75-12.6 48.2-12.2 49-11.75L49-11.75 49-12.55Q49-15.25 47.7-16.28 46.4-17.3 43.5-17.3L43.5-17.3Q42.65-17.3 41.82-16.95 41-16.6 39.95-16L39.95-16Q38.55-15.25 37.3-15.25L37.3-15.25Q36.85-15.25 36.45-15.88 36.05-16.5 36.05-17L36.05-17Q36.05-18.45 37.42-19.5 38.8-20.55 40.7-21.08 42.6-21.6 44.1-21.6L44.1-21.6Q45.6-21.6 47.55-21.03 49.5-20.45 50.75-19.45L50.75-19.45Q52.25-18.15 53.07-16.43 53.9-14.7 53.9-12.65L53.9-12.65Q53.9-12 53.8-10.7L53.8-10.7Q53.7-9.3 53.7-8.3L53.7-8.3Q53.7-7.85 53.6-6.95L53.6-6.95Q53.5-5.85 53.5-5.2L53.5-5.2Q53.5-4.6 53.95-4.17 54.4-3.75 55-3.75L55-3.75 56.4-3.8Q56.95-3.8 57.25-3.4 57.55-3 57.55-2.4L57.55-2.4ZM41.45-3.7Q43.6-3.7 45.05-4.15 46.5-4.6 48.55-5.8L48.55-5.8Q48.75-6.65 48.8-8.05L48.8-8.05Q46.05-9.35 44.25-9.35L44.25-9.35Q42.2-9.35 40.6-8.6 39-7.85 39-5.95L39-5.95Q39-5 39.8-4.35 40.6-3.7 41.45-3.7L41.45-3.7ZM68.25-2Q68.25-1.15 67.6-0.5 66.95 0.15 66 0.15L66 0.15Q64.5 0.15 63.8-0.43 63.1-1 63.1-2.55L63.1-2.55Q63.1-4.4 63-7.4L63-7.4Q62.9-9.9 62.9-11.6L62.9-11.6Q62.9-12.4 63-13.7L63-13.7Q63.1-14.9 63.1-15.5L63.1-15.5Q62.95-16.45 62.35-17.07 61.75-17.7 60.8-17.7L60.8-17.7Q60.35-17.7 60.05-18.13 59.75-18.55 59.75-19L59.75-19Q59.75-20.15 60.67-20.75 61.6-21.35 62.9-21.35L62.9-21.35Q65.6-21.35 66.65-18.15L66.65-18.15Q67.95-19.65 69.62-20.58 71.3-21.5 72.85-21.5L72.85-21.5Q74.7-21.5 76.22-20.5 77.75-19.5 77.75-17.8L77.75-17.8Q77.75-16.85 76.92-15.85 76.1-14.85 75.25-14.85L75.25-14.85Q74.8-14.85 74.47-15.08 74.15-15.3 73.7-15.75L73.7-15.75Q73.2-16.25 72.85-16.48 72.5-16.7 72.05-16.7L72.05-16.7Q71.25-16.7 70.55-16.45 69.85-16.2 69.6-15.85L69.6-15.85Q68.8-14.6 68.42-13.6 68.05-12.6 68.05-11.45L68.05-11.45Q68.05-10.6 68-10.1L68-10.1 67.95-7.25Q67.95-6.6 68-5.8 68.05-5 68.1-4.6L68.1-4.6Q68.25-3.25 68.25-2L68.25-2ZM100.49-16.05Q100.89-15.35 101.14-14.03 101.39-12.7 101.39-11.65L101.39-11.65Q101.39-9.7 100.54-6.1L100.54-6.1Q97.09 0.2 90.34 0.2L90.34 0.2Q87.84 0.2 85.24-1.45 82.64-3.1 81.64-5.25L81.64-5.25Q80.29-9.55 80.29-10.7L80.29-10.7Q80.29-12.7 81.17-14.95 82.04-17.2 83.39-18.85L83.39-18.85Q84.24-20 86.44-20.83 88.64-21.65 90.44-21.65L90.44-21.65Q93.94-21.65 96.39-20.33 98.84-19 100.49-16.05L100.49-16.05ZM96.14-8Q96.39-8.65 96.39-11.35L96.39-11.35Q96.39-12.8 95.87-14.2 95.34-15.6 94.34-16.6L94.34-16.6Q94.24-16.7 93.79-16.93 93.34-17.15 92.57-17.38 91.79-17.6 90.79-17.6L90.79-17.6Q87.99-17.6 86.69-15.35 85.39-13.1 85.39-10.25L85.39-10.25Q85.39-9.75 85.67-8.35 85.94-6.95 86.14-6.6L86.14-6.6Q86.29-6.25 86.92-5.63 87.54-5 88.47-4.53 89.39-4.05 90.39-4.05L90.39-4.05Q92.64-4.05 93.99-5.13 95.34-6.2 96.14-8L96.14-8ZM129.09-3.85Q129.34-3.75 129.89-3.6 130.44-3.45 130.69-3.3 130.94-3.15 130.94-2.85L130.94-2.85Q130.99-1.65 130.07-0.88 129.14-0.1 127.89-0.1L127.89-0.1Q125.94-0.1 124.84-1.15 123.74-2.2 123.24-4.35L123.24-4.35Q123.04-5.2 123.04-6.7L123.04-6.7Q123.04-7.55 123.14-9.45L123.14-9.45Q123.24-11.45 123.24-12.65L123.24-12.65Q123.24-14.4 122.27-15.73 121.29-17.05 119.54-17.05L119.54-17.05Q118.49-17.05 117.34-16.43 116.19-15.8 115.74-14.9L115.74-14.9Q114.99-13.45 114.69-11.75L114.69-11.75Q114.14-8.75 114.14-5.5L114.14-5.5Q114.14-3.95 114.19-3.1L114.19-3.1Q114.19-2.9 114.22-2.33 114.24-1.75 114.12-1.28 113.99-0.8 113.69-0.4L113.69-0.4Q113.44-0.15 112.92 0.03 112.39 0.2 111.94 0.2L111.94 0.2Q111.24 0.2 110.19-0.4 109.14-1 108.99-1.75L108.99-1.75 108.94-2.6Q108.94-3.05 109.04-3.65L109.04-3.65Q109.64-7.15 109.64-9.75L109.64-9.75Q109.64-10.9 109.59-11.55L109.59-11.55 109.54-13.9Q109.54-15.1 108.94-16.23 108.34-17.35 107.54-17.35L107.54-17.35Q107.29-17.35 106.84-17.18 106.39-17 106.09-17L106.09-17Q105.59-17 105.02-17.5 104.44-18 104.44-18.55L104.44-18.55Q104.44-19.6 105.14-20.25L105.14-20.25Q105.89-20.85 106.62-21.2 107.34-21.55 108.29-21.55L108.29-21.55Q109.09-21.55 109.59-21.4 110.09-21.25 110.94-20.75L110.94-20.75Q111.39-20.5 111.99-19.65 112.59-18.8 112.99-17.25L112.99-17.25Q114.29-19.65 116.22-20.63 118.14-21.6 121.14-21.6L121.14-21.6Q122.29-21.6 123.62-20.85 124.94-20.1 125.89-19.1L125.89-19.1Q126.79-18 127.39-16.38 127.99-14.75 127.99-13.45L127.99-13.45Q127.99-12.7 127.89-11L127.89-11Q127.74-9.65 127.74-8.15L127.74-8.15Q127.74-4.65 129.09-3.85L129.09-3.85ZM157.29-2.4Q157.29-1.3 156.11-0.55 154.94 0.2 153.94 0.2L153.94 0.2Q152.04 0.2 150.91-0.28 149.79-0.75 148.84-2.05L148.84-2.05Q147.54-0.9 145.29-0.33 143.04 0.25 141.14 0.25L141.14 0.25Q138.04 0.25 136.04-1.43 134.04-3.1 134.04-6.35L134.04-6.35Q134.04-7.75 134.79-8.93 135.54-10.1 136.84-11L136.84-11Q138.29-11.95 140.14-12.48 141.99-13 143.99-13L143.99-13Q145.04-13 146.49-12.6 147.94-12.2 148.74-11.75L148.74-11.75 148.74-12.55Q148.74-15.25 147.44-16.28 146.14-17.3 143.24-17.3L143.24-17.3Q142.39-17.3 141.56-16.95 140.74-16.6 139.69-16L139.69-16Q138.29-15.25 137.04-15.25L137.04-15.25Q136.59-15.25 136.19-15.88 135.79-16.5 135.79-17L135.79-17Q135.79-18.45 137.16-19.5 138.54-20.55 140.44-21.08 142.34-21.6 143.84-21.6L143.84-21.6Q145.34-21.6 147.29-21.03 149.24-20.45 150.49-19.45L150.49-19.45Q151.99-18.15 152.81-16.43 153.64-14.7 153.64-12.65L153.64-12.65Q153.64-12 153.54-10.7L153.54-10.7Q153.44-9.3 153.44-8.3L153.44-8.3Q153.44-7.85 153.34-6.95L153.34-6.95Q153.24-5.85 153.24-5.2L153.24-5.2Q153.24-4.6 153.69-4.17 154.14-3.75 154.74-3.75L154.74-3.75 156.14-3.8Q156.69-3.8 156.99-3.4 157.29-3 157.29-2.4L157.29-2.4ZM141.19-3.7Q143.34-3.7 144.79-4.15 146.24-4.6 148.29-5.8L148.29-5.8Q148.49-6.65 148.54-8.05L148.54-8.05Q145.79-9.35 143.99-9.35L143.99-9.35Q141.94-9.35 140.34-8.6 138.74-7.85 138.74-5.95L138.74-5.95Q138.74-5 139.54-4.35 140.34-3.7 141.19-3.7L141.19-3.7Z" fill="#ffa96a" data-fill-palette-color="primary"></path><path d="M163.44-31.75Q164.39-31.75 165.17-31.25 165.94-30.75 166.09-29.5L166.09-29.5Q166.69-25.55 166.87-21.63 167.04-17.7 167.04-12.75L167.04-12.75Q167.04-10.65 166.69-5.1L166.69-5.1Q168.89-4.9 170.09-4.9L170.09-4.9Q170.94-4.9 173.94-5.15L173.94-5.15Q175.69-5.4 176.99-5.4L176.99-5.4Q178.19-5.4 179.19-5.18 180.19-4.95 181.24-4.45L181.24-4.45Q182.29-3.85 182.29-2.6L182.29-2.6Q182.29-1.6 181.67-0.8 181.04 0 180.19 0L180.19 0Q179.59 0 178.29-0.2L178.29-0.2Q175.94-0.55 173.79-0.55L173.79-0.55Q173.09-0.55 172.22-0.48 171.34-0.4 170.94-0.4L170.94-0.4Q169.74-0.25 168.54-0.25L168.54-0.25Q166.09-0.25 164.14-0.5L164.14-0.5Q163.14-0.6 162.14-1.28 161.14-1.95 161.14-3.25L161.14-3.25Q161.14-4 161.34-7.1L161.34-7.1Q161.69-12.25 161.69-14.95L161.69-14.95Q161.69-17.05 161.49-19.35 161.29-21.65 161.24-22.25L161.24-22.25Q160.79-26.5 160.79-29.25L160.79-29.25Q160.79-30.55 161.42-31.15 162.04-31.75 163.44-31.75L163.44-31.75ZM184.79-10.6Q184.79-12.5 185.49-14.43 186.19-16.35 187.34-17.95L187.34-17.95Q188.49-19.55 190.99-20.58 193.49-21.6 195.44-21.6L195.44-21.6Q197.44-21.6 199.51-21.05 201.59-20.5 202.39-19.35L202.39-19.35Q204.24-16.75 204.24-14.25L204.24-14.25Q204.24-12.9 203.66-11.95 203.09-11 202.04-9.9L202.04-9.9Q201.19-9 199.36-8.7 197.54-8.4 195.74-8.4L195.74-8.4Q194.59-8.4 192.94-8.63 191.29-8.85 189.74-9.2L189.74-9.2Q189.84-8.2 190.24-7.25 190.64-6.3 191.19-5.8L191.19-5.8Q192.19-4.85 193.26-4.6 194.34-4.35 196.04-4.35L196.04-4.35Q197.84-4.35 199.39-4.95L199.39-4.95Q200.64-5.4 201.44-5.4L201.44-5.4Q202.39-5.4 202.89-4.83 203.39-4.25 203.39-3.35L203.39-3.35Q203.39-2.1 201.94-1.3 200.49-0.5 198.61-0.13 196.74 0.25 195.59 0.25L195.59 0.25Q193.24 0.25 191.04-0.6 188.84-1.45 187.39-3L187.39-3Q186.19-4.4 185.49-6.38 184.79-8.35 184.79-10.6L184.79-10.6ZM195.69-17.35Q194.59-17.35 193.49-16.93 192.39-16.5 191.69-15.75L191.69-15.75Q190.79-14.8 190.46-14.23 190.14-13.65 190.04-12.65L190.04-12.65Q191.29-12.25 195.24-12.25L195.24-12.25Q197.39-12.25 198.56-12.9 199.74-13.55 199.74-14.6L199.74-14.6Q199.74-15.65 198.44-16.5 197.14-17.35 195.69-17.35L195.69-17.35ZM227.09-0.1Q228.43 0.85 228.91 2 229.38 3.15 229.38 5.2L229.38 5.2Q229.38 6.2 228.81 7.2 228.23 8.2 227.63 8.65L227.63 8.65Q222.88 11.25 218.13 11.25L218.13 11.25Q215.78 11.25 214.09 10.65 212.38 10.05 210.88 9.05L210.88 9.05Q209.88 8.3 209.26 6.98 208.63 5.65 208.63 4.35L208.63 4.35Q208.63 2.55 209.76 1.2 210.88-0.15 212.78-0.75L212.78-0.75Q212.43-1.5 212.43-2.5L212.43-2.5Q212.43-3.45 213.84-5.35L213.84-5.35Q211.43-6.15 210.06-8.2 208.68-10.25 208.68-13L208.68-13Q208.68-14.7 209.49-16.03 210.28-17.35 211.88-19.1L211.88-19.1Q212.99-20.3 214.68-20.85 216.38-21.4 218.93-21.4L218.93-21.4Q220.74-21.4 223.38-20.6L223.38-20.6Q226.54-22.8 228.93-22.8L228.93-22.8Q229.54-22.8 230.31-22.5 231.09-22.2 231.48-21.9L231.48-21.9Q231.79-21.35 231.79-20.05L231.79-20.05Q231.79-19.55 231.36-19.07 230.93-18.6 230.29-18.6L230.29-18.6 229.09-18.65Q228.18-18.75 227.68-18.75L227.68-18.75Q227.13-18.75 226.04-18.65L226.04-18.65Q227.09-17.4 227.66-16 228.23-14.6 228.23-12.35L228.23-12.35Q228.23-10.65 226.98-8.8 225.73-6.95 224.04-5.9L224.04-5.9Q221.43-4.5 217.99-4.45L217.99-4.45Q217.59-4.05 217.31-3.73 217.03-3.4 217.03-3.2L217.03-3.2Q217.03-2.65 217.99-2.35 218.93-2.05 220.88-1.9L220.88-1.9Q222.38-1.8 224.21-1.28 226.04-0.75 227.09-0.1L227.09-0.1ZM218.28-8.55Q220.59-8.55 221.98-9.8 223.38-11.05 223.38-13.35L223.38-13.35Q223.38-15.1 222.13-16.2 220.88-17.3 218.93-17.3L218.93-17.3Q217.68-17.3 216.26-16.88 214.84-16.45 214.24-15.55L214.24-15.55Q213.93-15.15 213.63-14.03 213.34-12.9 213.34-12.3L213.34-12.3Q213.34-11.45 214.06-10.58 214.78-9.7 215.96-9.13 217.13-8.55 218.28-8.55L218.28-8.55ZM221.43 2.3Q218.68 2.05 217.56 1.83 216.43 1.6 215.74 1.3L215.74 1.3Q213.18 2.65 213.18 4.25L213.18 4.25Q213.18 5.75 214.74 6.53 216.28 7.3 218.28 7.3L218.28 7.3Q219.18 7.3 220.74 7.1 222.29 6.9 223.34 6.4L223.34 6.4Q224.04 6.05 224.38 5.73 224.73 5.4 224.73 4.55L224.73 4.55Q224.73 3.5 223.63 2.95 222.54 2.4 221.43 2.3L221.43 2.3ZM257.43-2.4Q257.43-1.3 256.26-0.55 255.08 0.2 254.08 0.2L254.08 0.2Q252.18 0.2 251.06-0.28 249.93-0.75 248.98-2.05L248.98-2.05Q247.68-0.9 245.43-0.33 243.18 0.25 241.28 0.25L241.28 0.25Q238.18 0.25 236.18-1.43 234.18-3.1 234.18-6.35L234.18-6.35Q234.18-7.75 234.93-8.93 235.68-10.1 236.98-11L236.98-11Q238.43-11.95 240.28-12.48 242.13-13 244.13-13L244.13-13Q245.18-13 246.63-12.6 248.08-12.2 248.88-11.75L248.88-11.75 248.88-12.55Q248.88-15.25 247.58-16.28 246.28-17.3 243.38-17.3L243.38-17.3Q242.53-17.3 241.71-16.95 240.88-16.6 239.83-16L239.83-16Q238.43-15.25 237.18-15.25L237.18-15.25Q236.73-15.25 236.33-15.88 235.93-16.5 235.93-17L235.93-17Q235.93-18.45 237.31-19.5 238.68-20.55 240.58-21.08 242.48-21.6 243.98-21.6L243.98-21.6Q245.48-21.6 247.43-21.03 249.38-20.45 250.63-19.45L250.63-19.45Q252.13-18.15 252.96-16.43 253.78-14.7 253.78-12.65L253.78-12.65Q253.78-12 253.68-10.7L253.68-10.7Q253.58-9.3 253.58-8.3L253.58-8.3Q253.58-7.85 253.48-6.95L253.48-6.95Q253.38-5.85 253.38-5.2L253.38-5.2Q253.38-4.6 253.83-4.17 254.28-3.75 254.88-3.75L254.88-3.75 256.28-3.8Q256.83-3.8 257.13-3.4 257.43-3 257.43-2.4L257.43-2.4ZM241.33-3.7Q243.48-3.7 244.93-4.15 246.38-4.6 248.43-5.8L248.43-5.8Q248.63-6.65 248.68-8.05L248.68-8.05Q245.93-9.35 244.13-9.35L244.13-9.35Q242.08-9.35 240.48-8.6 238.88-7.85 238.88-5.95L238.88-5.95Q238.88-5 239.68-4.35 240.48-3.7 241.33-3.7L241.33-3.7ZM266.33-7.75Q266.33-5.85 266.91-4.83 267.48-3.8 268.38-3.8L268.38-3.8Q268.88-3.8 269.33-3.88 269.78-3.95 270.23-3.95L270.23-3.95Q270.73-3.95 271.11-3.45 271.48-2.95 271.48-2.35L271.48-2.35Q271.48-1.15 270.36-0.48 269.23 0.2 267.33 0.2L267.33 0.2Q265.98 0.2 264.61-0.63 263.23-1.45 262.33-3.23 261.43-5 261.43-7.65L261.43-7.65Q261.43-13.35 261.63-17.3L261.63-17.3Q261.88-22 261.88-29.15L261.88-29.15Q261.88-31.4 262.13-32.3L262.13-32.3Q262.43-33 263.11-33.38 263.78-33.75 264.53-33.75L264.53-33.75Q265.28-33.75 265.86-33.5 266.43-33.25 266.63-32.7L266.63-32.7Q266.83-32.1 266.91-31.53 266.98-30.95 266.98-29.9L266.98-29.9Q266.98-27.85 266.83-25.95L266.83-25.95Q266.73-23.65 266.73-22.6L266.73-22.6Q266.33-13.8 266.33-7.75L266.33-7.75Z" fill="#e65728" data-fill-palette-color="secondary"></path></g></svg></g></svg></g></svg></g></svg></g><g><svg viewBox="0 0 160.71367594218717 160.71367594218717" height="160.71367594218717" width="160.71367594218717"><g><svg></svg></g><g id="icon-0"><svg viewBox="0 0 160.71367594218717 160.71367594218717" height="160.71367594218717" width="160.71367594218717"><g><path d="M0 80.357c0-44.38 35.977-80.357 80.357-80.357 44.38 0 80.357 35.977 80.357 80.357 0 44.38-35.977 80.357-80.357 80.357-44.38 0-80.357-35.977-80.357-80.357zM80.357 154.761c41.092 0 74.404-33.312 74.404-74.404 0-41.092-33.312-74.404-74.404-74.405-41.092 0-74.404 33.312-74.405 74.405 0 41.092 33.312 74.404 74.405 74.404z" data-fill-palette-color="accent" fill="#e65728" stroke="transparent"></path></g><g transform="matrix(1,0,0,1,33.854483739269085,62.47679376160156)"><svg viewBox="0 0 93.004708463649 35.76008841898404" height="35.76008841898404" width="93.004708463649"><g><svg version="1.0" xmlns="http://www.w3.org/2000/svg" xmlns:xlink="http://www.w3.org/1999/xlink" x="0" y="0" viewBox="0 0.00023700809106230736 100.00000762939453 38.449764251708984" enable-background="new 0 0 100 38.449" xml:space="preserve" width="93.004708463649" height="35.76008841898404" class="icon-x-0" data-fill-palette-color="accent" id="x-0"><path d="M99.929 15.958c-0.053-0.283-0.157-0.619-0.364-1.056L80.803 0.005h-37.75c-0.874-0.054-1.348 0.359-1.763 0.841L28.672 13.487 1.078 18.071C0.694 18.406 0.309 18.735 0 19.599l0.059 9.493c0.598 1.521 1.006 1.324 1.459 1.536h5.312c0-12.905 19.225-12.856 19.225 0h49.021c0-12.933 19.08-12.906 19.08 0h4.354c0.731-0.067 1.142-0.713 1.49-1.47L99.929 15.958zM59.408 15.346H33.254c-0.995-0.393-1.13-0.988-0.716-1.713l9.403-9.278c0.212-0.18 0.379-0.428 0.747-0.374h16.72V15.346zM86.488 15.348H62.516V3.983h14.066c0.368-0.055 0.535 0.193 0.747 0.374l8.058 8.115C86.13 13.591 87.623 15.122 86.488 15.348z" fill="#e65728" data-fill-palette-color="accent"></path><path d="M16.396 22.843c-4.31 0-7.804 3.493-7.804 7.803s3.494 7.804 7.804 7.804 7.804-3.494 7.804-7.804S20.705 22.843 16.396 22.843zM16.396 33.921c-1.819 0-3.294-1.475-3.294-3.293 0-1.819 1.475-3.294 3.294-3.294 1.818 0 3.293 1.475 3.293 3.294C19.688 32.446 18.214 33.921 16.396 33.921z" fill="#e65728" data-fill-palette-color="accent"></path><path d="M84.615 22.839c-4.31 0-7.804 3.494-7.804 7.804s3.494 7.804 7.804 7.804 7.803-3.494 7.803-7.804S88.925 22.839 84.615 22.839zM84.615 33.921c-1.819 0-3.294-1.475-3.294-3.293 0-1.819 1.475-3.294 3.294-3.294 1.818 0 3.293 1.475 3.293 3.294C87.908 32.446 86.434 33.921 84.615 33.921z" fill="#e65728" data-fill-palette-color="accent"></path></svg></g></svg></g></svg></g></svg></g></svg></g></svg><rect width="395.52" height="108.21527638841182" fill="none" stroke="none" visibility="hidden"></rect></g></svg></g></svg>